<?xml version="1.0" standalone="no"?>
<!DOCTYPE svg PUBLIC "-//W3C//DTD SVG 20010904//EN"
 "http://www.w3.org/TR/2001/REC-SVG-20010904/DTD/svg10.dtd">
<svg version="1.0" xmlns="http://www.w3.org/2000/svg"
 width="512.000000pt" height="512.000000pt" viewBox="0 0 512.000000 512.000000"
 preserveAspectRatio="xMidYMid meet">

<g transform="translate(0.000000,512.000000) scale(0.100000,-0.100000)"
fill="#000000" stroke="none">
<path d="M3200 4894 c-110 -29 -213 -102 -528 -373 -321 -276 -433 -363 -588
-459 -250 -155 -458 -222 -689 -222 -156 0 -307 35 -435 100 -22 11 -40 18
-40 14 0 -9 92 -219 392 -899 149 -335 302 -686 340 -780 39 -93 75 -175 82
-182 42 -45 286 -59 417 -24 240 63 456 203 935 607 317 268 427 354 592 465
215 143 410 229 600 265 103 19 314 14 400 -10 l54 -15 -7 27 c-24 98 -124
296 -208 412 -77 106 -247 262 -457 420 -323 242 -446 352 -597 539 -95 117
-156 144 -263 115z"/>
<path d="M515 4325 c-89 -31 -149 -145 -125 -236 40 -151 212 -206 327 -106
95 84 95 220 0 304 -58 51 -128 64 -202 38z"/>
<path d="M715 3849 c-49 -22 -94 -44 -98 -48 -4 -5 111 -282 256 -617 146
-335 408 -937 582 -1339 174 -401 403 -928 508 -1170 104 -242 194 -444 198
-449 8 -9 209 72 209 85 0 4 -113 268 -251 586 -484 1116 -671 1544 -983 2263
-173 398 -318 725 -323 727 -4 1 -48 -16 -98 -38z"/>
</g>
</svg>
