<?xml version="1.0" standalone="no"?>
<!DOCTYPE svg PUBLIC "-//W3C//DTD SVG 20010904//EN"
 "http://www.w3.org/TR/2001/REC-SVG-20010904/DTD/svg10.dtd">
<svg version="1.0" xmlns="http://www.w3.org/2000/svg"
 width="512.000000pt" height="512.000000pt" viewBox="0 0 512.000000 512.000000"
 preserveAspectRatio="xMidYMid meet">

<g transform="translate(0.000000,512.000000) scale(0.100000,-0.100000)"
fill="#000000" stroke="none">
<path d="M4045 5103 c-460 -98 -724 -578 -550 -1003 14 -36 166 -303 338 -595
258 -437 317 -531 340 -539 64 -23 59 -29 399 549 318 540 356 615 378 739 88
507 -394 959 -905 849z m297 -162 c341 -87 535 -426 427 -746 -16 -46 -118
-229 -293 -528 -148 -251 -272 -457 -276 -457 -14 0 -543 912 -567 978 -155
426 261 867 709 753z"/>
<path d="M4096 4744 c-61 -19 -111 -51 -157 -100 -49 -53 -65 -82 -85 -149
-47 -164 40 -348 200 -421 181 -82 387 -4 473 181 24 51 28 73 28 145 0 72 -4
94 -28 145 -78 168 -260 251 -431 199z m214 -178 c59 -39 85 -89 85 -166 0
-78 -26 -127 -88 -168 -56 -37 -153 -39 -210 -3 -76 47 -111 140 -88 229 14
51 75 117 123 131 53 16 135 6 178 -23z"/>
<path d="M2250 4706 c-439 -56 -817 -208 -1161 -468 -508 -382 -842 -968 -919
-1613 -16 -128 -16 -401 -1 -530 62 -522 281 -989 637 -1364 351 -369 799
-609 1314 -702 145 -27 496 -37 651 -20 535 61 1034 299 1413 676 182 181 333
391 446 620 84 171 131 297 175 469 56 218 70 333 70 581 0 234 -13 353 -60
550 -37 156 -136 435 -154 435 -4 0 -28 -36 -53 -80 l-47 -79 30 -82 30 -82
-45 -46 c-61 -62 -147 -204 -188 -306 -18 -47 -38 -85 -45 -85 -6 0 -36 28
-65 62 -111 129 -132 148 -182 173 -64 31 -153 41 -231 25 -48 -10 -67 -20
-96 -50 -60 -62 -59 -138 2 -228 l30 -44 -21 -34 c-12 -18 -39 -49 -61 -68
l-41 -34 -45 20 c-79 35 -155 15 -207 -55 -15 -20 -20 -42 -20 -90 0 -56 6
-73 50 -156 61 -117 120 -184 179 -207 25 -9 45 -21 45 -25 0 -13 -21 -32
-143 -133 -142 -118 -152 -138 -167 -341 -8 -103 -18 -163 -30 -193 -21 -48
-212 -244 -326 -335 -120 -96 -162 -88 -239 44 -65 112 -67 125 -49 236 17
111 13 144 -32 241 -32 67 -54 91 -54 58 0 -7 -16 -46 -36 -85 -23 -47 -34
-80 -30 -94 3 -12 -2 -64 -10 -115 -14 -81 -14 -100 -2 -155 18 -81 88 -206
153 -273 82 -86 195 -105 300 -52 88 45 386 323 447 418 40 63 55 124 68 282
6 76 13 145 16 153 4 8 55 56 114 105 134 112 155 136 170 198 21 91 -23 181
-100 202 -21 6 -47 18 -58 28 -23 19 -117 190 -109 198 2 3 20 -4 38 -15 42
-26 99 -27 147 -2 53 27 169 151 193 207 28 63 22 122 -20 181 -17 24 -29 48
-26 54 11 16 87 10 131 -11 23 -12 50 -32 58 -46 35 -52 138 -165 164 -178 49
-25 118 -30 167 -11 54 20 74 46 114 150 17 44 54 118 82 164 61 99 58 101 85
-70 23 -141 25 -477 5 -619 -104 -733 -570 -1369 -1236 -1686 -117 -56 -303
-123 -397 -144 l-57 -13 -48 40 c-77 64 -138 102 -236 148 -212 100 -436 126
-677 79 -98 -20 -262 -75 -339 -114 l-61 -30 -76 34 c-218 101 -560 352 -609
446 -51 99 -17 292 96 530 67 143 80 209 59 312 -24 124 -89 219 -200 292 -39
26 -82 64 -97 87 -24 36 -27 52 -34 182 -9 167 -37 277 -102 401 -65 125 -184
240 -270 261 -15 4 -27 13 -27 19 0 33 61 200 84 230 66 88 271 202 495 277
229 76 366 153 469 264 141 150 176 349 96 539 -41 97 -43 94 76 148 191 85
528 183 573 165 20 -7 31 -66 22 -113 -9 -51 -42 -77 -153 -120 -260 -100
-337 -163 -336 -279 0 -52 27 -116 61 -147 75 -68 229 -82 363 -33 84 30 105
42 240 130 95 63 144 85 185 85 55 0 85 85 45 128 -28 29 -57 35 -114 22 -62
-14 -111 -39 -220 -112 -103 -70 -178 -105 -253 -119 -85 -16 -161 15 -146 59
6 17 132 79 255 126 176 67 234 144 232 308 0 79 2 87 20 92 40 11 253 6 378
-9 107 -12 316 -51 326 -60 1 -1 -14 -26 -34 -56 -89 -131 -113 -223 -88 -342
9 -44 13 -94 9 -113 l-6 -34 -97 0 c-179 -1 -306 -35 -371 -101 -57 -57 -76
-111 -74 -211 l2 -88 -33 -25 c-50 -38 -153 -81 -249 -104 -106 -25 -174 -58
-215 -106 -38 -42 -46 -70 -40 -135 6 -61 42 -112 101 -142 66 -33 157 -34
332 -3 214 38 443 45 577 16 120 -25 191 -55 223 -93 19 -22 23 -34 15 -47
-15 -30 -100 -78 -168 -97 -73 -20 -120 -15 -272 31 -149 45 -258 59 -460 58
-156 0 -197 -4 -263 -21 -116 -32 -210 -85 -292 -167 -125 -126 -176 -263
-167 -453 l2 -33 43 26 c23 15 56 33 74 41 34 15 38 23 48 96 16 118 116 241
247 303 164 77 477 71 769 -16 132 -39 205 -45 292 -25 120 28 243 103 282
171 46 82 39 164 -22 234 -64 75 -175 124 -357 156 -135 24 -384 16 -581 -19
-77 -14 -159 -26 -183 -26 -72 0 -105 31 -62 58 11 6 70 26 132 42 125 34 257
95 318 147 52 45 75 118 66 207 -13 123 38 153 284 165 80 4 155 12 166 19 44
24 82 80 94 138 12 56 9 106 -11 196 -9 41 -8 54 14 107 26 65 114 190 133
191 11 0 34 100 34 143 0 26 -224 89 -435 122 -138 22 -480 28 -615 11z m-872
-534 c49 -112 52 -198 13 -287 -59 -133 -202 -232 -466 -320 -76 -26 -181 -66
-232 -90 -105 -49 -104 -53 -25 70 147 230 359 450 596 619 43 31 82 56 86 56
4 0 17 -21 28 -48z m-971 -1458 c81 -47 162 -176 198 -314 10 -36 21 -126 24
-200 6 -116 11 -143 34 -192 38 -84 70 -122 147 -172 85 -56 126 -106 147
-175 21 -73 12 -133 -33 -222 -55 -111 -101 -235 -121 -332 -9 -48 -20 -87
-23 -87 -3 0 -28 33 -56 73 -310 437 -452 990 -389 1512 8 66 15 123 15 128 0
12 11 8 57 -19z m2072 -2389 c82 -20 180 -59 254 -103 54 -31 58 -36 41 -46
-32 -18 -460 -13 -579 7 -134 24 -314 67 -320 77 -8 12 143 59 245 75 100 17
264 12 359 -10z"/>
<path d="M1860 2194 c-121 -24 -234 -87 -320 -180 -150 -163 -181 -387 -80
-582 16 -31 123 -210 238 -397 222 -362 229 -370 289 -349 22 7 70 79 236 349
114 187 221 366 238 397 102 198 70 419 -84 584 -112 120 -229 174 -392 179
-55 2 -111 1 -125 -1z m247 -182 c202 -77 304 -296 224 -478 -23 -52 -363
-614 -371 -614 -8 0 -348 562 -373 617 -34 74 -31 198 6 275 51 103 145 181
257 213 71 19 188 14 257 -13z"/>
<path d="M1880 1867 c-49 -16 -133 -102 -148 -153 -28 -94 -8 -169 63 -239
101 -102 229 -102 330 0 102 101 102 229 0 330 -70 71 -152 91 -245 62z m135
-172 c50 -49 15 -135 -55 -135 -19 0 -40 9 -55 25 -16 15 -25 36 -25 55 0 19
9 40 25 55 15 16 36 25 55 25 19 0 40 -9 55 -25z"/>
<path d="M4030 1615 c-70 -23 -178 -110 -237 -193 -66 -92 -95 -168 -100 -257
-3 -59 0 -76 19 -109 70 -119 231 -95 378 54 106 107 181 277 166 373 -18 111
-115 168 -226 132z m56 -215 c-31 -96 -95 -179 -175 -231 -55 -36 -61 -36 -61
-1 0 71 101 218 189 274 58 36 69 26 47 -42z"/>
</g>
</svg>
