<?xml version="1.0" standalone="no"?>
<!DOCTYPE svg PUBLIC "-//W3C//DTD SVG 20010904//EN"
 "http://www.w3.org/TR/2001/REC-SVG-20010904/DTD/svg10.dtd">
<svg version="1.0" xmlns="http://www.w3.org/2000/svg"
 width="512.000000pt" height="512.000000pt" viewBox="0 0 512.000000 512.000000"
 preserveAspectRatio="xMidYMid meet">

<g transform="translate(0.000000,512.000000) scale(0.100000,-0.100000)"
fill="#000000" stroke="none">
<path d="M4155 5035 c-16 -15 -25 -35 -25 -56 0 -27 16 -48 105 -139 58 -58
105 -110 105 -115 0 -6 -124 -134 -277 -287 l-276 -276 184 -191 184 -191 280
280 c154 154 284 280 290 280 5 0 57 -47 115 -105 91 -89 112 -105 139 -105
21 0 41 9 56 25 54 53 60 45 -388 492 -447 448 -439 442 -492 388z"/>
<path d="M3265 4365 c-46 -45 -25 -94 89 -205 l56 -55 -945 -945 c-893 -893
-945 -947 -945 -980 0 -31 11 -46 95 -130 l95 -95 -244 -245 c-258 -259 -273
-279 -244 -331 l16 -26 -579 -579 c-318 -318 -584 -591 -590 -606 -25 -61 38
-124 99 -99 15 6 288 272 607 591 548 548 580 578 599 564 48 -33 59 -26 323
238 l253 253 98 -98 c86 -85 102 -97 132 -97 32 0 91 56 980 945 l945 944 82
-79 c45 -44 94 -82 109 -86 54 -14 105 41 91 97 -4 14 -231 248 -519 537 -469
467 -516 512 -546 512 -22 0 -41 -8 -57 -25z m538 -1027 l-187 -188 -117 115
c-90 90 -122 115 -143 115 -38 0 -76 -41 -76 -81 0 -27 16 -49 112 -146 l112
-113 -189 -190 -190 -190 -105 104 c-58 57 -113 106 -122 109 -27 10 -74 -12
-87 -39 -22 -49 -13 -64 96 -176 l107 -108 -189 -190 -190 -190 -120 119 c-66
65 -128 121 -137 124 -27 10 -74 -12 -87 -39 -22 -50 -14 -64 111 -191 l122
-123 -174 -175 -175 -175 -232 232 -233 233 907 907 908 908 232 -232 233
-233 -187 -187z"/>
</g>
</svg>
